<?xml version="1.0" encoding="UTF-8" standalone="no"?>
<!-- Created with Inkscape (http://www.inkscape.org/) -->

<svg
   xmlns:dc="http://purl.org/dc/elements/1.1/"
   xmlns:cc="http://creativecommons.org/ns#"
   xmlns:rdf="http://www.w3.org/1999/02/22-rdf-syntax-ns#"
   xmlns:svg="http://www.w3.org/2000/svg"
   xmlns="http://www.w3.org/2000/svg"
   version="1.2"
   width="825.76172"
   height="1247.1797"
   id="svg2">
  <defs
     id="defs4" />
  <metadata
     id="metadata7">
    <rdf:RDF>
      <cc:Work
         rdf:about="">
        <dc:format>image/svg+xml</dc:format>
        <dc:type
           rdf:resource="http://purl.org/dc/dcmitype/StillImage" />
        <dc:title></dc:title>
      </cc:Work>
    </rdf:RDF>
  </metadata>
  <g
     transform="translate(43.113281,19.817534)"
     id="layer1">
    <flowRoot
       id="flowRoot2985"
       xml:space="preserve"
       style="font-size:40px;font-style:normal;font-weight:normal;line-height:125%;letter-spacing:0px;word-spacing:0px;fill:#000000;fill-opacity:1;stroke:none;font-family:Sans"><flowRegion
         id="flowRegion2987"><rect
           width="156.97771"
           height="53.740116"
           x="4.2426405"
           y="19.986282"
           id="rect2989" /></flowRegion><flowPara
         id="flowPara2991">Step 1</flowPara></flowRoot>    <rect
       width="172.53406"
       height="158.39192"
       x="540.33008"
       y="291.37314"
       id="rect3005"
       style="fill:none;stroke:#000000;stroke-width:3;stroke-miterlimit:4;stroke-opacity:1;stroke-dasharray:none" />
    <path
       d="m 158.39192,142.31575 a 39.59798,37.476658 0 1 1 -79.195963,0 39.59798,37.476658 0 1 1 79.195963,0 z"
       id="path3021"
       style="fill:none;stroke:#000000;stroke-width:3;stroke-miterlimit:4;stroke-opacity:1;stroke-dasharray:none" />
    <path
       d="m 117.37973,179.79241 -1.41422,55.15433 -28.284269,36.76956"
       id="path3025"
       style="fill:none;stroke:#000000;stroke-width:1px;stroke-linecap:butt;stroke-linejoin:miter;stroke-opacity:1" />
    <path
       d="m 147.07821,274.54473 -29.69848,-41.0122"
       id="path3027"
       style="fill:none;stroke:#000000;stroke-width:1px;stroke-linecap:butt;stroke-linejoin:miter;stroke-opacity:1" />
    <path
       d="M 117.37973,182.62084 84.852814,208.07669"
       id="path3029"
       style="fill:none;stroke:#000000;stroke-width:1px;stroke-linecap:butt;stroke-linejoin:miter;stroke-opacity:1" />
    <path
       d="m 151.32085,205.24826 -35.35534,-21.2132"
       id="path3031"
       style="fill:none;stroke:#000000;stroke-width:1px;stroke-linecap:butt;stroke-linejoin:miter;stroke-opacity:1" />
    <path
       d="m 175.09421,161.13937 67.42594,22.47766"
       id="path3033"
       style="fill:none;stroke:#000000;stroke-width:0.46345741px;stroke-linecap:butt;stroke-linejoin:miter;stroke-opacity:1" />
    <path
       d="m 223.38182,146.33657 24.04163,41.01219"
       id="path3035"
       style="fill:none;stroke:#000000;stroke-width:1px;stroke-linecap:butt;stroke-linejoin:miter;stroke-opacity:1" />
    <path
       d="m 213.48232,211.80461 32.52691,-26.87006"
       id="path3037"
       style="fill:none;stroke:#000000;stroke-width:1px;stroke-linecap:butt;stroke-linejoin:miter;stroke-opacity:1" />
    <flowRoot
       transform="translate(16,14)"
       id="flowRoot3045"
       xml:space="preserve"
       style="font-size:26px;font-style:normal;font-weight:normal;line-height:125%;letter-spacing:0px;word-spacing:0px;fill:#000000;fill-opacity:1;stroke:none;font-family:Sans"><flowRegion
         id="flowRegion3047"><rect
           width="152.73506"
           height="66.46804"
           x="535.98694"
           y="324.04221"
           id="rect3049"
           style="font-size:26px" /></flowRegion><flowPara
         id="flowPara3051"
         style="text-align:center;text-anchor:middle">CONTRACT</flowPara><flowPara
         id="flowPara3541"
         style="text-align:center;text-anchor:middle">1bc421</flowPara></flowRoot>    <flowRoot
       transform="translate(27.805194,450.21831)"
       id="flowRoot2985-2"
       xml:space="preserve"
       style="font-size:40px;font-style:normal;font-weight:normal;line-height:125%;letter-spacing:0px;word-spacing:0px;fill:#000000;fill-opacity:1;stroke:none;font-family:Sans"><flowRegion
         id="flowRegion2987-5"><rect
           width="156.97771"
           height="53.740116"
           x="4.2426405"
           y="19.986282"
           id="rect2989-0" /></flowRegion><flowPara
         id="flowPara2991-8">Step 2</flowPara></flowRoot>    <rect
       width="172.53406"
       height="158.39192"
       x="87.681236"
       y="613.95599"
       id="rect3005-5"
       style="fill:none;stroke:#000000;stroke-width:3;stroke-miterlimit:4;stroke-opacity:1;stroke-dasharray:none" />
    <flowRoot
       transform="matrix(0.82741178,0,0,0.83870338,254.41296,279.43615)"
       id="flowRoot3007-2"
       xml:space="preserve"
       style="font-size:40px;font-style:normal;font-weight:normal;line-height:125%;letter-spacing:0px;word-spacing:0px;fill:#000000;fill-opacity:1;stroke:none;font-family:Sans"><flowRegion
         id="flowRegion3009-9"><rect
           width="230.51682"
           height="127.27922"
           x="84.852814"
           y="292.9295"
           id="rect3011-3" /></flowRegion><flowPara
         id="flowPara3013-7"
         style="font-size:20px">Hmm, 178dc4, let me look that up in my memory</flowPara></flowRoot>    <path
       d="m 260.77372,608.95227 c 0,2.24428 1.83759,6.73282 0,6.73282 -1.8376,0 -1.8376,-6.73282 0,-6.73282 2.94159,0 4.44344,4.74002 6.89099,6.73282 0.38223,0.31123 0.9188,0 1.37819,0 0.4594,0 0.91879,0 1.3782,0 5.05338,0 10.10678,0 15.16016,0 0.45939,0 0.91879,0 1.37819,0 0.45939,0 1.05336,0.39674 1.3782,0 0.32485,-0.39674 -0.20546,-1.18137 0,-1.68321 0.29055,-0.70969 1.08765,-0.97349 1.3782,-1.68319 0.41089,-1.00368 -0.64969,-2.57295 0,-3.36642 0.64968,-0.79347 2.1067,0.79347 2.75639,0 0.32485,-0.39673 -0.32484,-1.28646 0,-1.6832 0.32485,-0.39672 0.91879,0 1.3782,0 0,-0.56106 -0.32485,-1.28647 0,-1.6832 0.28174,-0.34412 3.58814,0.33369 4.13458,0 3.04726,-1.86084 0.42769,-1.04468 1.37819,-3.36642 0.18298,-0.4469 3.76867,-4.82615 4.13459,-5.0496 0.4109,-0.25093 1.05336,0.39672 1.37821,0 0.45859,-0.56011 -0.45861,-2.80632 0,-3.36642 0.0624,-0.0764 6.24116,0 6.89097,0 3.67519,0 7.35039,0 11.02557,0 0.45941,0 0.9188,0 1.3782,0 0.45941,0 1.05336,-0.39673 1.3782,0 0.32484,0.39674 -0.32484,1.28647 0,1.68321 0.29465,0.35987 4.75295,-0.30932 5.51278,0 0.97453,0.39674 1.78187,1.28647 2.7564,1.68321 0.82177,0.33454 6.93389,0 8.26917,0 8.26918,0 16.53835,0 24.80754,0 2.297,0 4.59398,0 6.89098,0 0.4594,0 0.91879,0 1.3782,0 0.45939,0 0.96728,-0.25093 1.37818,0 0.58111,0.35485 0.79711,1.32835 1.3782,1.6832 0.41091,0.25092 0.9188,0 1.3782,0 0.4594,0 0.9188,0 1.37819,0 3.21579,0 6.43159,0 9.64739,0 5.97218,0 11.94436,0 17.91653,0 20.21354,0 40.42709,0 60.64064,0 9.18797,0 18.37595,0 27.56392,0 1.8376,0 3.6752,0 5.5128,0 0.4594,0 0.9188,0 1.37819,0 0.45941,0 1.3782,-0.56106 1.3782,0 0,0.56107 -1.83759,0 -1.3782,0 0.9188,0 1.83759,0 2.75639,0 0.4594,0 0.9673,0.25092 1.3782,0 0.58109,-0.35485 0.7971,-1.32835 1.3782,-1.6832 0.74765,-0.45657 5.13568,0.46055 5.51279,0 0.64968,-0.79348 -0.4109,-2.36273 0,-3.36642 0.29054,-0.70969 1.08764,-0.97351 1.37819,-1.6832 0.4109,-1.00367 -0.64968,-2.57293 0,-3.3664 0.32485,-0.39674 1.05336,0.39672 1.3782,0 0.32483,-0.39674 -0.45941,-1.68322 0,-1.68322 0.4594,0 0,2.24429 0,1.68322 0,-1.12215 0,-2.24429 0,-3.36643 0.4594,0 1.17274,0.50184 1.3782,0 0.41089,-1.00366 0,-2.24425 0,-3.36639 0,-0.56108 -0.32486,-1.28647 0,-1.68321 0.32483,-0.39674 1.05334,0.39674 1.37818,0 0.0555,-0.0677 0,-6.11468 0,-6.73281 0,-4.48855 0,-8.9771 0,-13.46564 0,-0.56106 0,-1.12214 0,-1.6832 0,-0.56108 -0.45939,-1.68321 0,-1.68321 0.45941,0 0,2.24427 0,1.68321 0,-2.80535 0,-5.61069 0,-8.41602 0,-0.56109 -0.45939,-1.6832 0,-1.6832 0.45941,0 0,2.24425 0,1.6832 0,-1.12214 0,-2.24428 0,-3.36642 0,-3.36641 0,-6.73282 0,-10.09922 0,-0.40822 0.0443,-4.99548 0,-5.04962 -0.32484,-0.39672 -1.05335,0.39674 -1.37818,0 -0.32486,-0.39672 0.32483,-1.28646 0,-1.6832 -0.32486,-0.39674 -1.05337,0.39674 -1.3782,0 -0.45974,-0.56148 0.45973,-2.80494 0,-3.3664 -0.32484,-0.39674 -1.05335,0.39672 -1.3782,0 -0.32484,-0.39674 0.32485,-1.28648 0,-1.6832 -0.64968,-0.79348 -2.1067,0.79346 -2.75639,0 -0.32484,-0.39675 0.32484,-1.28649 0,-1.68322 -0.32484,-0.39673 -1.05335,0.39673 -1.3782,0 -0.32484,-0.39673 0.32485,-1.28646 0,-1.6832 -0.6891,-0.8416 -3.44549,0.8416 -4.13459,0 -0.32484,-0.39674 0.32485,-1.28647 0,-1.68321 -0.1738,-0.21226 -8.20616,0.0512 -8.26918,0 -0.76449,-0.62245 0.41091,-2.36273 0,-3.36641 -0.0696,-0.16994 -4.00306,0 -5.5128,0 -0.45939,0 -1.37818,0.56107 -1.37818,0 0,-0.56107 1.83759,0 1.37818,0 -1.37818,0 -2.75637,0 -4.13458,0 -3.67519,0 -7.35038,0 -11.02557,0 -11.02556,0 -22.05114,0 -33.07671,0 -9.18797,0 -18.37594,0 -27.56392,0 -3.67519,0 -7.35038,0 -11.02557,0 -0.4594,0 -0.9188,0 -1.3782,0 -0.4594,0 -1.05335,-0.39674 -1.3782,0 -0.32484,0.39674 0.32485,1.28647 0,1.68321 -0.42676,0.5212 -6.46421,-0.52121 -6.89096,0 -0.32486,0.39673 0.32485,1.28647 0,1.6832 -0.28176,0.34412 -3.58815,-0.33369 -4.13459,0 -0.5811,0.35486 -0.79711,1.32836 -1.3782,1.68321 -0.74765,0.45655 -5.13568,-0.46056 -5.51278,0 -0.32485,0.39674 0.32484,1.28647 0,1.6832 -0.32485,0.39673 -0.91879,0 -1.37821,0 -3.21578,0 -6.43157,0 -9.64736,0 -11.02558,0 -22.05114,0 -33.07672,0 -3.21579,0 -6.43158,0 -9.64737,0 -0.62068,0 -3.71516,-0.25612 -4.13459,0 -5.73572,3.50255 1.47334,-0.11623 -1.3782,3.36642 -0.32484,0.39672 -1.05335,-0.39674 -1.37819,0 -0.32484,0.39672 0.32484,1.28647 0,1.68319 -0.32484,0.39674 -1.05335,-0.39672 -1.3782,0 -0.32485,0.39674 0.32485,1.28647 0,1.68321 -0.32485,0.39674 -1.05335,-0.39674 -1.3782,0 -0.32484,0.39674 0.32485,1.28648 0,1.6832 -0.64968,0.79348 -2.1067,-0.79346 -2.75639,0 -0.32485,0.39674 0.32484,1.28647 0,1.68321 -0.64969,0.79348 -2.10671,-0.79346 -2.75638,0 -0.32486,0.39674 0.32484,1.28646 0,1.68321 -0.32486,0.39672 -0.9673,-0.25093 -1.3782,0 -0.5811,0.35485 -0.7971,1.32835 -1.3782,1.6832 -0.8218,0.50183 -2.1067,-0.79348 -2.7564,0 -0.32484,0.39673 0.32485,1.28647 0,1.68319 -0.68909,0.84161 -3.44548,-0.84158 -4.13459,0 -0.32484,0.39675 0.32485,1.28647 0,1.68321 -0.32484,0.39674 -1.05335,-0.39674 -1.37819,0 -0.32484,0.39674 0.32484,1.28648 0,1.68321 -0.32484,0.39673 -0.9673,-0.25092 -1.37819,0 -0.5811,0.35485 -0.91881,1.12214 -1.37821,1.6832 -0.45939,0.56107 -1.08765,0.9735 -1.37819,1.68321 -0.20544,0.50182 0.32484,1.28647 0,1.6832 -0.32485,0.39673 -1.05335,-0.39673 -1.3782,0 -0.64968,0.79347 0.4109,2.36274 0,3.36642 -1.70304,4.15987 -1.3782,-0.58101 -1.3782,3.3664 0,4.48854 0.45941,-0.56107 -1.37819,1.6832 -0.32485,0.39674 0,1.12214 0,1.68321 0,0.79362 0.0624,8.33973 0,8.41602 -0.32485,0.39673 -1.05334,-0.39673 -1.3782,0 -0.32483,0.39673 0,1.12214 0,1.6832 0,0.56107 0,1.12214 0,1.68321 0,5.61067 0,11.22136 0,16.83203 0,0.79364 -0.0624,8.33975 0,8.41603 0.32486,0.39674 1.05335,-0.39673 1.3782,0 0.32484,0.39674 -0.32485,1.28647 0,1.68321 0.32484,0.39674 1.05335,-0.39674 1.37819,0 0.6891,0.8416 -0.6891,4.20802 0,5.04962 1.35957,1.66043 2.7564,-3.44903 2.7564,1.68319"
       id="path3019-5"
       style="fill:none;stroke:#000000;stroke-width:1.07698333px;stroke-linecap:butt;stroke-linejoin:miter;stroke-opacity:1" />
    <rect
       width="449.67673"
       height="89.052254"
       x="281.4501"
       y="738.42841"
       id="rect3155"
       style="fill:none;stroke:#000000;stroke-width:3.04319525;stroke-miterlimit:4;stroke-opacity:1;stroke-dasharray:none" />
    <path
       d="m 427.193,826.6738 0,-90.50967"
       id="path3159"
       style="fill:none;stroke:#000000;stroke-width:1px;stroke-linecap:butt;stroke-linejoin:miter;stroke-opacity:1" />
    <path
       d="m 582.65599,830.33065 0,-90.50967"
       id="path3159-8"
       style="fill:none;stroke:#000000;stroke-width:1px;stroke-linecap:butt;stroke-linejoin:miter;stroke-opacity:1" />
    <flowRoot
       transform="translate(-68,120)"
       id="flowRoot3179"
       xml:space="preserve"
       style="font-size:40px;font-style:normal;font-weight:normal;line-height:125%;letter-spacing:0px;word-spacing:0px;fill:#000000;fill-opacity:1;stroke:none;font-family:Sans"><flowRegion
         id="flowRegion3181"><rect
           width="210"
           height="60"
           x="356"
           y="621.36218"
           id="rect3183" /></flowRegion><flowPara
         id="flowPara3185"
         style="font-size:16px">178dc3</flowPara></flowRoot>    <flowRoot
       transform="translate(75.90625,120.00404)"
       id="flowRoot3179-6"
       xml:space="preserve"
       style="font-size:40px;font-style:normal;font-weight:normal;line-height:125%;letter-spacing:0px;word-spacing:0px;fill:#000000;fill-opacity:1;stroke:none;font-family:Sans"><flowRegion
         id="flowRegion3181-5"><rect
           width="210"
           height="60"
           x="356"
           y="621.36218"
           id="rect3183-1" /></flowRegion><flowPara
         id="flowPara3185-3"
         style="font-size:16px">178dc4</flowPara></flowRoot>    <flowRoot
       transform="translate(231.90625,121.00404)"
       id="flowRoot3179-3"
       xml:space="preserve"
       style="font-size:40px;font-style:normal;font-weight:normal;line-height:125%;letter-spacing:0px;word-spacing:0px;fill:#000000;fill-opacity:1;stroke:none;font-family:Sans"><flowRegion
         id="flowRegion3181-53"><rect
           width="210"
           height="60"
           x="356"
           y="621.36218"
           id="rect3183-5" /></flowRegion><flowPara
         id="flowPara3185-2"
         style="font-size:16px">178dc5</flowPara></flowRoot>    <flowRoot
       id="flowRoot3227"
       xml:space="preserve"
       style="font-size:20px;font-style:normal;font-weight:normal;line-height:125%;letter-spacing:0px;word-spacing:0px;fill:#000000;fill-opacity:1;stroke:none;font-family:Sans"><flowRegion
         id="flowRegion3229"><rect
           width="94"
           height="55"
           x="432"
           y="766.36218"
           id="rect3231"
           style="font-size:20px" /></flowRegion><flowPara
         id="flowPara3233"></flowPara></flowRoot>    <flowRoot
       transform="translate(-3,2)"
       id="flowRoot3235"
       xml:space="preserve"
       style="font-size:40px;font-style:normal;font-weight:normal;line-height:125%;letter-spacing:0px;word-spacing:0px;fill:#000000;fill-opacity:1;stroke:none;font-family:Sans"><flowRegion
         id="flowRegion3237"><rect
           width="210"
           height="78"
           x="433"
           y="763.36218"
           id="rect3239" /></flowRegion><flowPara
         id="flowPara3243"
         style="font-size:15px">Send 1000 to James</flowPara><flowPara
         id="flowPara3409"
         style="font-size:15px" /><flowPara
         id="flowPara3407"
         style="font-size:15px">[ ] [X] [X] [ ] [ ]</flowPara></flowRoot>    <path
       d="m 460,710.36218 30,13"
       id="path3249"
       style="fill:none;stroke:#000000;stroke-width:1px;stroke-linecap:butt;stroke-linejoin:miter;stroke-opacity:1" />
    <path
       d="m 512,709.36218 -23,15"
       id="path3251"
       style="fill:none;stroke:#000000;stroke-width:1px;stroke-linecap:butt;stroke-linejoin:miter;stroke-opacity:1" />
    <path
       d="m 489,663.36218 1,56"
       id="path3253"
       style="fill:none;stroke:#000000;stroke-width:1px;stroke-linecap:butt;stroke-linejoin:miter;stroke-opacity:1" />
    <path
       d="m 261,659.36218 229,4"
       id="path3255"
       style="fill:none;stroke:#000000;stroke-width:1px;stroke-linecap:butt;stroke-linejoin:miter;stroke-opacity:1" />
    <flowRoot
       transform="translate(12.794922,824.17581)"
       id="flowRoot2985-2-2"
       xml:space="preserve"
       style="font-size:40px;font-style:normal;font-weight:normal;line-height:125%;letter-spacing:0px;word-spacing:0px;fill:#000000;fill-opacity:1;stroke:none;font-family:Sans"><flowRegion
         id="flowRegion2987-5-3"><rect
           width="156.97771"
           height="53.740116"
           x="4.2426405"
           y="19.986282"
           id="rect2989-0-8" /></flowRegion><flowPara
         id="flowPara2991-8-8">Step 3</flowPara></flowRoot>    <rect
       width="172.53406"
       height="158.39192"
       x="56.266403"
       y="1008.1088"
       id="rect3005-5-3"
       style="fill:none;stroke:#000000;stroke-width:3;stroke-miterlimit:4;stroke-opacity:1;stroke-dasharray:none" />
    <flowRoot
       transform="matrix(0.82741178,0,0,0.83870338,247.99813,643.58892)"
       id="flowRoot3007-2-8"
       xml:space="preserve"
       style="font-size:40px;font-style:normal;font-weight:normal;line-height:125%;letter-spacing:0px;word-spacing:0px;fill:#000000;fill-opacity:1;stroke:none;font-family:Sans"><flowRegion
         id="flowRegion3009-9-5"><rect
           width="346.54126"
           height="130.85617"
           x="84.852814"
           y="292.9295"
           id="rect3011-3-5" /></flowRegion><flowPara
         id="flowPara3401"
         style="font-size:20px">Okay, Bob and Charlie already authorized it too. I need 3 out of 5, so that's enough. So, let's see, send 1000 to James. And, sent!</flowPara></flowRoot>    <path
       d="m 230.15897,1000.2869 c 0,3.0897 2.617,9.2691 0,9.2691 -2.61702,0 -2.61702,-9.2691 0,-9.2691 4.18927,0 6.32813,6.5256 9.81381,9.2691 0.54435,0.4284 1.30851,0 1.96275,0 0.65425,0 1.30849,0 1.96276,0 7.19678,0 14.39358,0 21.59035,0 0.65424,0 1.3085,0 1.96275,0 0.65424,0 1.50015,0.5461 1.96277,0 0.46263,-0.5463 -0.29261,-1.6264 0,-2.3174 0.41378,-0.9769 1.54897,-1.3401 1.96276,-2.3171 0.58517,-1.3818 -0.92526,-3.5422 0,-4.6346 0.92524,-1.0923 3.00026,1.0924 3.92552,0 0.46263,-0.54617 -0.46263,-1.77101 0,-2.31728 0.46263,-0.54613 1.30849,0 1.96276,0 0,-0.77232 -0.46264,-1.77097 0,-2.31719 0.40124,-0.47374 5.11005,0.45935 5.88826,0 4.33976,-2.56179 0.6091,-1.4382 1.96275,-4.63451 0.2606,-0.61524 5.36716,-6.64411 5.88828,-6.95173 0.58519,-0.34545 1.50015,0.54616 1.96278,0 0.6531,-0.77109 -0.65313,-3.86343 0,-4.63451 0.0889,-0.10518 8.88835,0 9.81378,0 5.23403,0 10.46806,0 15.70207,0 0.65427,0 1.30851,0 1.96277,0 0.65427,0 1.50014,-0.54617 1.96276,0 0.46262,0.54619 -0.46262,1.77107 0,2.31726 0.41963,0.49543 6.76892,-0.42584 7.85103,0 1.38788,0.54618 2.53765,1.77107 3.92553,2.31725 1.17032,0.46056 9.8749,0 11.77654,0 11.77656,0 23.55311,0 35.32968,0 3.27127,0 6.54252,0 9.81379,0 0.65426,0 1.3085,0 1.96277,0 0.65424,0 1.37755,-0.34545 1.96273,0 0.82759,0.48852 1.13521,1.82873 1.96277,2.31725 0.58519,0.34543 1.30851,0 1.96276,0 0.65425,0 1.30851,0 1.96275,0 4.57977,0 9.15955,0 13.73934,0 8.50528,0 17.01056,0 25.51583,0 28.78713,0 57.57427,0 86.36141,0 13.08505,0 26.17012,0 39.25517,0 2.61702,0 5.23404,0 7.85106,0 0.65425,0 1.30851,0 1.96275,0 0.65427,0 1.96276,-0.77241 1.96276,0 0,0.77241 -2.617,0 -1.96276,0 1.30851,0 2.61701,0 3.92551,0 0.65426,0 1.37759,0.34543 1.96277,0 0.82756,-0.48852 1.13519,-1.82873 1.96276,-2.31725 1.06477,-0.62855 7.31399,0.63404 7.85105,0 0.92524,-1.09237 -0.58519,-3.25274 0,-4.63451 0.41377,-0.97702 1.54896,-1.34022 1.96275,-2.31724 0.58518,-1.38174 -0.92525,-3.54213 0,-4.63449 0.46263,-0.54618 1.50014,0.54616 1.96276,0 0.46261,-0.54618 -0.65427,-2.31727 0,-2.31727 0.65426,0 0,3.08969 0,2.31727 0,-1.54485 0,-3.08969 0,-4.63452 0.65426,0 1.67016,0.69087 1.96277,0 0.58516,-1.38173 0,-3.08964 0,-4.63448 0,-0.77243 -0.46265,-1.77106 0,-2.31725 0.4626,-0.54619 1.50011,0.54619 1.96273,0 0.079,-0.0932 0,-8.41801 0,-9.26899 0,-6.17933 0,-12.35867 0,-18.53799 0,-0.77241 0,-1.54484 0,-2.31724 0,-0.77244 -0.65424,-2.31726 0,-2.31726 0.65427,0 0,3.08966 0,2.31726 0,-3.8621 0,-7.72418 0,-11.58624 0,-0.77245 -0.65424,-2.31725 0,-2.31725 0.65427,0 0,3.08964 0,2.31725 0,-1.54484 0,-3.08968 0,-4.63452 0,-4.6345 0,-9.26899 0,-13.90348 0,-0.56199 0.0631,-6.87722 0,-6.95175 -0.46262,-0.54616 -1.50013,0.54618 -1.96273,0 -0.46265,-0.54616 0.4626,-1.77106 0,-2.31725 -0.46265,-0.54618 -1.50016,0.54619 -1.96277,0 -0.65474,-0.77298 0.65473,-3.86153 0,-4.63448 -0.46262,-0.54619 -1.50013,0.54616 -1.96276,0 -0.46262,-0.54619 0.46263,-1.77108 0,-2.31724 -0.92525,-1.09238 -3.00026,1.09234 -3.92552,0 -0.46262,-0.54621 0.46262,-1.7711 0,-2.31728 -0.46262,-0.54617 -1.50013,0.54618 -1.96276,0 -0.46262,-0.54617 0.46263,-1.77105 0,-2.31724 -0.98138,-1.15862 -4.9069,1.15862 -5.88828,0 -0.46262,-0.54619 0.46263,-1.77107 0,-2.31725 -0.24752,-0.29222 -11.68681,0.0705 -11.77656,0 -1.08875,-0.85692 0.5852,-3.25275 0,-4.6345 -0.0991,-0.23396 -5.70096,0 -7.85106,0 -0.65424,0 -1.96273,0.77242 -1.96273,0 0,-0.77242 2.617,0 1.96273,0 -1.96273,0 -3.92548,0 -5.88826,0 -5.23403,0 -10.46805,0 -15.70207,0 -15.70206,0 -31.40415,0 -47.10622,0 -13.08505,0 -26.17011,0 -39.25517,0 -5.23403,0 -10.46805,0 -15.70208,0 -0.65425,0 -1.30851,0 -1.96276,0 -0.65426,0 -1.50013,-0.54619 -1.96277,0 -0.46262,0.54618 0.46264,1.77107 0,2.31725 -0.60777,0.71753 -9.206,-0.71754 -9.81376,0 -0.46265,0.54618 0.46264,1.77107 0,2.31725 -0.40127,0.47374 -5.11007,-0.45939 -5.88828,0 -0.82757,0.48853 -1.1352,1.82873 -1.96276,2.31725 -1.06477,0.62853 -7.31399,-0.63405 -7.85103,0 -0.46264,0.54619 0.46262,1.77107 0,2.31724 -0.46264,0.54618 -1.3085,0 -1.96278,0 -4.57976,0 -9.15953,0 -13.73929,0 -15.70209,0 -31.40415,0 -47.10624,0 -4.57977,0 -9.15953,0 -13.7393,0 -0.88395,0 -5.29095,-0.35259 -5.88828,0 -8.16853,4.82193 2.09826,-0.16001 -1.96277,4.63452 -0.46262,0.54616 -1.50013,-0.54619 -1.96275,0 -0.46262,0.54616 0.46262,1.77107 0,2.31723 -0.46262,0.54618 -1.50013,-0.54616 -1.96276,0 -0.46264,0.54618 0.46263,1.77107 0,2.31725 -0.46264,0.54619 -1.50013,-0.54618 -1.96277,0 -0.46262,0.54619 0.46264,1.77109 0,2.31725 -0.92524,1.09237 -3.00025,-1.09235 -3.92551,0 -0.46264,0.54618 0.46262,1.77106 0,2.31725 -0.92526,1.09238 -3.00027,-1.09235 -3.9255,0 -0.46265,0.54619 0.46262,1.77106 0,2.31726 -0.46265,0.54616 -1.37758,-0.34545 -1.96277,0 -0.82757,0.48852 -1.13519,1.82872 -1.96276,2.31724 -1.17037,0.69086 -3.00026,-1.09237 -3.92553,0 -0.46262,0.54617 0.46264,1.77107 0,2.31723 -0.98137,1.15863 -4.90688,-1.15859 -5.88828,0 -0.46262,0.5462 0.46264,1.77107 0,2.31726 -0.46262,0.54618 -1.50013,-0.54619 -1.96275,0 -0.46262,0.54618 0.46262,1.77108 0,2.31725 -0.46262,0.54618 -1.37758,-0.34544 -1.96275,0 -0.82757,0.48852 -1.30852,1.54484 -1.96278,2.31724 -0.65424,0.77242 -1.54897,1.34021 -1.96275,2.31726 -0.29257,0.69085 0.46262,1.77107 0,2.31724 -0.46263,0.54618 -1.50013,-0.54617 -1.96276,0 -0.92524,1.09236 0.58518,3.25276 0,4.63452 -2.42539,5.72684 -1.96277,-0.79987 -1.96277,4.63448 0,6.17932 0.65427,-0.77242 -1.96275,2.31724 -0.46263,0.54619 0,1.54484 0,2.31726 0,1.09257 0.0889,11.48121 0,11.58624 -0.46263,0.54617 -1.50011,-0.54617 -1.96276,0 -0.46261,0.54617 0,1.54484 0,2.31724 0,0.77242 0,1.54484 0,2.31726 0,7.72415 0,15.44832 0,23.17247 0,1.09259 -0.0889,11.48124 0,11.58625 0.46265,0.54619 1.50013,-0.54617 1.96276,0 0.46263,0.54619 -0.46263,1.77107 0,2.31726 0.46263,0.54618 1.50013,-0.54619 1.96275,0 0.98139,1.15862 -0.98138,5.79313 0,6.95175 1.93624,2.2859 3.92553,-4.74824 3.92553,2.31723"
       id="path3019-5-7"
       style="fill:none;stroke:#000000;stroke-width:1.50801206px;stroke-linecap:butt;stroke-linejoin:miter;stroke-opacity:1" />
    <rect
       width="271.8898"
       height="53.265347"
       x="292.42877"
       y="1122.9745"
       id="rect3155-3"
       style="fill:none;stroke:#000000;stroke-width:1.83010483;stroke-miterlimit:4;stroke-opacity:1;stroke-dasharray:none" />
    <path
       d="m 428.58517,1104.515 30,13"
       id="path3249-5"
       style="fill:none;stroke:#000000;stroke-width:1px;stroke-linecap:butt;stroke-linejoin:miter;stroke-opacity:1" />
    <path
       d="m 480.58517,1103.515 -23,15"
       id="path3251-9"
       style="fill:none;stroke:#000000;stroke-width:1px;stroke-linecap:butt;stroke-linejoin:miter;stroke-opacity:1" />
    <path
       d="m 457.58517,1057.515 1,56"
       id="path3253-4"
       style="fill:none;stroke:#000000;stroke-width:1px;stroke-linecap:butt;stroke-linejoin:miter;stroke-opacity:1" />
    <path
       d="m 229.58517,1053.515 229,4"
       id="path3255-4"
       style="fill:none;stroke:#000000;stroke-width:1px;stroke-linecap:butt;stroke-linejoin:miter;stroke-opacity:1" />
    <rect
       width="420.45346"
       height="52.828968"
       x="255.7733"
       y="187.94769"
       id="rect3155-3-6"
       style="fill:none;stroke:#000000;stroke-width:2.2664814;stroke-miterlimit:4;stroke-opacity:1;stroke-dasharray:none" />
    <path
       d="m 551,243.36218 0,-53"
       id="path3429"
       style="fill:none;stroke:#000000;stroke-width:1px;stroke-linecap:butt;stroke-linejoin:miter;stroke-opacity:1" />
    <flowRoot
       transform="translate(-46,132)"
       id="flowRoot3431"
       xml:space="preserve"
       style="font-size:40px;font-style:normal;font-weight:normal;line-height:125%;letter-spacing:0px;word-spacing:0px;fill:#000000;fill-opacity:1;stroke:none;font-family:Sans"><flowRegion
         id="flowRegion3433"><rect
           width="175"
           height="55"
           x="266"
           y="68.362183"
           id="rect3435" /></flowRegion><flowPara
         id="flowPara3439"
         style="font-size:20px;text-align:center;text-anchor:middle">10 ether</flowPara></flowRoot>    <flowRoot
       transform="matrix(0.82741178,0,0,0.83870338,295.04838,-52.2754)"
       id="flowRoot3007-1"
       xml:space="preserve"
       style="font-size:40px;font-style:normal;font-weight:normal;line-height:125%;letter-spacing:0px;word-spacing:0px;fill:#000000;fill-opacity:1;stroke:none;font-family:Sans"><flowRegion
         id="flowRegion3009-2"><rect
           width="230.51682"
           height="127.27922"
           x="84.852814"
           y="292.9295"
           id="rect3011-35" /></flowRegion><flowPara
         id="flowPara3013-0"
         style="font-size:20px">Authorize withdrawal number 178dc4</flowPara></flowRoot>    <flowRoot
       transform="translate(4,8)"
       id="flowRoot3474"
       xml:space="preserve"
       style="font-size:20px;font-style:normal;font-weight:normal;line-height:125%;letter-spacing:0px;word-spacing:0px;fill:#000000;fill-opacity:1;stroke:none;font-family:Sans"><flowRegion
         id="flowRegion3476"><rect
           width="148"
           height="48"
           x="301"
           y="1126.3622"
           id="rect3478"
           style="font-size:20px" /></flowRegion><flowPara
         id="flowPara3480">1000 ether</flowPara></flowRoot>    <path
       d="m 358,241.86218 0,-53"
       id="path3429-6"
       style="fill:none;stroke:#000000;stroke-width:1px;stroke-linecap:butt;stroke-linejoin:miter;stroke-opacity:1" />
    <flowRoot
       transform="translate(-30.588867,211.50825)"
       id="flowRoot3431-0"
       xml:space="preserve"
       style="font-size:40px;font-style:normal;font-weight:normal;line-height:125%;letter-spacing:0px;word-spacing:0px;fill:#000000;fill-opacity:1;stroke:none;font-family:Sans"><flowRegion
         id="flowRegion3433-3"><rect
           width="175"
           height="55"
           x="266"
           y="68.362183"
           id="rect3435-5" /></flowRegion><flowPara
         id="flowPara3439-2"
         style="font-size:20px;text-align:center;text-anchor:middle" /></flowRoot>    <flowRoot
       transform="translate(0,8)"
       id="flowRoot3527"
       xml:space="preserve"
       style="font-size:16px;font-style:normal;font-weight:normal;line-height:125%;letter-spacing:0px;word-spacing:0px;fill:#000000;fill-opacity:1;stroke:none;font-family:Sans"><flowRegion
         id="flowRegion3529"><rect
           width="135"
           height="49"
           x="556"
           y="186.36218"
           id="rect3531"
           style="font-size:16px" /></flowRegion><flowPara
         id="flowPara3533">To: CONTRACT 1bc421</flowPara></flowRoot>    <path
       d="m 628,284.36218 0,-42"
       id="path3535"
       style="fill:none;stroke:#000000;stroke-width:1px;stroke-linecap:butt;stroke-linejoin:miter;stroke-opacity:1" />
    <path
       d="m 645,269.36218 -16,13"
       id="path3537"
       style="fill:none;stroke:#000000;stroke-width:1px;stroke-linecap:butt;stroke-linejoin:miter;stroke-opacity:1" />
    <path
       d="m 608,268.36218 19,16"
       id="path3539"
       style="fill:none;stroke:#000000;stroke-width:1px;stroke-linecap:butt;stroke-linejoin:miter;stroke-opacity:1" />
    <flowRoot
       transform="translate(-441.12109,342.62981)"
       id="flowRoot3045-7"
       xml:space="preserve"
       style="font-size:26px;font-style:normal;font-weight:normal;line-height:125%;letter-spacing:0px;word-spacing:0px;fill:#000000;fill-opacity:1;stroke:none;font-family:Sans"><flowRegion
         id="flowRegion3047-1"><rect
           width="152.73506"
           height="66.46804"
           x="535.98694"
           y="324.04221"
           id="rect3049-9"
           style="font-size:26px" /></flowRegion><flowPara
         id="flowPara3051-1"
         style="text-align:center;text-anchor:middle">CONTRACT</flowPara><flowPara
         id="flowPara3541-3"
         style="text-align:center;text-anchor:middle">1bc421</flowPara></flowRoot>    <flowRoot
       transform="translate(-468.12109,732.62981)"
       id="flowRoot3045-7-1"
       xml:space="preserve"
       style="font-size:26px;font-style:normal;font-weight:normal;line-height:125%;letter-spacing:0px;word-spacing:0px;fill:#000000;fill-opacity:1;stroke:none;font-family:Sans"><flowRegion
         id="flowRegion3047-1-1"><rect
           width="152.73506"
           height="66.46804"
           x="535.98694"
           y="324.04221"
           id="rect3049-9-8"
           style="font-size:26px" /></flowRegion><flowPara
         id="flowPara3051-1-9"
         style="text-align:center;text-anchor:middle">CONTRACT</flowPara><flowPara
         id="flowPara3541-3-6"
         style="text-align:center;text-anchor:middle">1bc421</flowPara></flowRoot>    <flowRoot
       transform="translate(160.29395,10.508254)"
       id="flowRoot3474-7"
       xml:space="preserve"
       style="font-size:20px;font-style:normal;font-weight:normal;line-height:125%;letter-spacing:0px;word-spacing:0px;fill:#000000;fill-opacity:1;stroke:none;font-family:Sans"><flowRegion
         id="flowRegion3476-0"><rect
           width="148"
           height="48"
           x="301"
           y="1126.3622"
           id="rect3478-8"
           style="font-size:20px" /></flowRegion><flowPara
         id="flowPara3480-5">To: James</flowPara></flowRoot>    <path
       d="m 428,1175.8622 0,-53"
       id="path3429-6-4"
       style="fill:none;stroke:#000000;stroke-width:1px;stroke-linecap:butt;stroke-linejoin:miter;stroke-opacity:1" />
    <path
       d="m 445,1176.8622 0,-53"
       id="path3429-6-3"
       style="fill:none;stroke:#000000;stroke-width:1px;stroke-linecap:butt;stroke-linejoin:miter;stroke-opacity:1" />
    <rect
       width="35.618973"
       height="0.61897397"
       x="273.57724"
       y="738.05267"
       id="rect3657"
       style="fill:none;stroke:#000000;stroke-width:2.38102603;stroke-miterlimit:4;stroke-opacity:1;stroke-dasharray:none" />
    <rect
       width="35.618973"
       height="0.61897397"
       x="272.07724"
       y="826.05267"
       id="rect3657-0"
       style="fill:none;stroke:#000000;stroke-width:2.38102603;stroke-miterlimit:4;stroke-opacity:1;stroke-dasharray:none" />
    <rect
       width="35.618973"
       height="0.61897397"
       x="710.07721"
       y="827.05267"
       id="rect3657-0-5"
       style="fill:none;stroke:#000000;stroke-width:2.38102603;stroke-miterlimit:4;stroke-opacity:1;stroke-dasharray:none" />
    <rect
       width="35.618973"
       height="0.61897397"
       x="706.07721"
       y="738.05267"
       id="rect3657-0-0"
       style="fill:none;stroke:#000000;stroke-width:2.38102603;stroke-miterlimit:4;stroke-opacity:1;stroke-dasharray:none" />
  </g>
</svg>
